<svg height="512pt" viewBox="0 0 512 512.0001" width="512pt" xmlns="http://www.w3.org/2000/svg"><path d="m305.945312 37.957031 168.074219 168.074219-115.835937 115.839844-168.074219-168.074219zm0 0" fill="#c6c5ca"/><path d="m160.078125 123.769531 3.585937 26.445313 26.445313 3.585937 115.835937-115.839843-3.582031-26.445313-26.445312-3.585937zm0 0" fill="#787680"/><path d="m358.183594 321.875 3.585937 26.445312 26.445313 3.585938 115.839844-115.839844-3.585938-26.445312-26.445312-3.582032zm0 0" fill="#787680"/><path d="m404.328125 136.34375-28.6875-28.6875 12.871094-20.339844 37.351562-1.195312-1.195312 37.351562zm0 0" fill="#e0e0e2"/><path d="m256.066406 219.757812 36.15625 36.15625-86.867187 86.871094-36.15625-36.160156zm0 0" fill="#ffb655"/><path d="m172.710938 310.140625 29.132812 29.132813-145.746094 145.746093-29.132812-29.132812zm0 0" fill="#b77062"/><path d="m43.925781 502.832031-34.773437-34.773437c0-1.9375 0-3.027344 0-4.964844l12.503906-12.507812 39.742188 39.742187-12.507813 12.503906c-1.9375 0-3.027344 0-4.964844 0zm0 0" fill="#c6c5ca"/><path d="m13.066406 498.917969c7.441406 7.4375 19.503906 7.4375 26.941406 0l-26.941406-26.941407c-7.4375 7.4375-7.4375 19.5 0 26.941407zm0 0" fill="#787680"/><path d="m220.109375 153.800781 100.835937-100.839843-15-15-115.835937 115.839843 168.074219 168.074219 15-15zm0 0" fill="#898890"/><path d="m193.664062 150.214844-3.585937-26.445313 112.257813-112.257812-26.417969-3.582031-115.839844 115.839843 3.585937 26.445313 26.445313 3.585937 3.582031-3.582031zm0 0" fill="#57565c"/><path d="m391.769531 348.320312-3.585937-26.445312 112.257812-112.253906-26.417968-3.582032-115.839844 115.835938 3.585937 26.445312 26.445313 3.585938 3.582031-3.582031zm0 0" fill="#57565c"/><path d="m395.644531 107.65625 12.867188-20.339844 17.332031-.554687.019531-.640625-37.351562 1.195312-12.871094 20.339844 28.6875 28.6875 12.25-7.75zm0 0" fill="#c6c5ca"/><path d="m199.195312 306.628906 71.871094-71.867187-15-15.003907-86.871094 86.871094 36.160157 36.160156 15-15zm0 0" fill="#ff7956"/><path d="m56.960938 455.890625 130.75-130.75-15-15-145.75 145.75 29.132812 29.132813 15-15zm0 0" fill="#895247"/><path d="m192.78125 161.730469 121.097656-121.09375-4.851562-35.785157-35.785156-4.851562-121.09375 121.097656 4.851562 35.78125zm85.8125-145.867188 7.761719 1.050781-58.644531 58.648438 10.605468 10.605469 58.648438-58.648438 1.050781 7.765625-110.582031 110.582032-17.105469-2.316407-2.320313-17.105469zm0 0"/><path d="m507.132812 202.957031-35.785156-4.851562-121.09375 121.097656 4.851563 35.78125 35.785156 4.855469 121.09375-121.097656zm-121.59375 141.019531-17.105468-2.320312-2.316406-17.105469 110.582031-110.582031 17.105469 2.320312 2.316406 17.105469zm0 0"/><path d="m379.488281 210.84375c12.273438-18.785156 12.273438-43.0625 0-61.847656l-5.054687-7.730469-23.265625 23.265625 10.605469 10.605469 9.417968-9.417969c3.335938 9.164062 3.335938 19.234375 0 28.398438l-53.324218-53.324219c9.160156-3.332031 19.234374-3.332031 28.398437 0l-9.417969 9.417969 10.605469 10.605468 23.265625-23.269531-7.730469-5.050781c-18.785156-12.273438-43.0625-12.273438-61.847656 0l-7.730469 5.050781 81.023438 81.027344zm0 0"/><path d="m316.679688 199.023438-23.269532 23.265624 7.730469 5.050782c18.785156 12.273437 43.058594 12.277344 61.847656.003906l7.734375-5.054688-81.027344-81.023437-5.050781 7.730469c-12.273437 18.785156-12.273437 43.0625 0 61.847656l5.050781 7.730469 23.269532-23.265625-10.609375-10.605469-9.417969 9.417969c-3.332031-9.164063-3.332031-19.238282 0-28.398438l53.328125 53.324219c-9.164063 3.332031-19.234375 3.332031-28.398437 0l9.417968-9.417969zm0 0"/><path d="m454.578125 197.199219 10.605469-10.609375-48.921875-48.921875 15.777343-9.980469 1.574219-49.316406-49.316406 1.574218-9.980469 15.777344-48.925781-48.921875-10.605469 10.605469s121.199219 121.195312 139.792969 139.792969zm-61.855469-102.515625 25.386719-.808594-.808594 25.386719-11.914062 7.535156-20.199219-20.199219zm0 0"/><path d="m182.398438 348.113281-126.304688 126.304688-18.523438-18.527344 126.300782-126.304687-10.605469-10.605469-126.304687 126.304687-5.300782-5.304687-20.007812 20.007812v11.175781l1.570312 1.574219c-5.484375 10.074219-3.96875 22.972657 4.542969 31.480469 8.699219 8.703125 21.644531 9.933594 31.488281 4.550781l1.566406 1.566407h11.175782l20.007812-20.007813-5.304687-5.304687 126.304687-126.300782zm-164.027344 145.5c-2.480469-2.480469-3.59375-5.820312-3.34375-9.070312l12.417968 12.417969c-3.296874.257812-6.605468-.875-9.074218-3.347657zm28.039062 1.097657-29.136718-29.132813 4.382812-4.382813 29.136719 29.132813zm0 0"/><path d="m198.945312 173.246094 46.515626 46.511718-86.871094 86.871094 46.765625 46.765625 86.871093-86.871093 46.511719 46.515624 10.605469-10.609374-139.789062-139.789063zm42.34375 82.449218h-10.550781l10.550781-10.554687zm15-25.105468 25.105469 25.105468h-25.105469zm-15 40.105468v21.15625h-21.15625v-21.15625zm-36.15625 21.15625h-10.550781l10.550781-10.550781zm0 15v25.105469l-25.105468-25.105469zm15 0h10.550782l-10.550782 10.554688zm36.15625-36.15625h10.554688l-10.554688 10.550782zm0 0"/><g fill="#fff"><path d="m363.488281 293.566406-10.605469-10.609375 46.867188-46.867187 10.605469 10.605468zm53.9375-53.941406-10.605469-10.605469 10.605469-10.605469 10.605469 10.605469zm17.679688-17.675781-10.605469-10.609375 10.605469-10.605469 10.605469 10.605469zm0 0"/><path d="m92.765625 429.828125-10.605469-10.609375 46.867188-46.867188 10.605468 10.609376zm53.9375-53.941406-10.605469-10.605469 10.605469-10.605469 10.609375 10.605469zm17.679687-17.675781-10.605468-10.609376 10.605468-10.605468 10.605469 10.609375zm0 0"/><path d="m408.523438 312.175781-10.609376-10.605469 46.871094-46.871093 10.605469 10.609375zm53.9375-53.941406-10.605469-10.605469 10.605469-10.605468 10.605468 10.605468zm17.679687-17.675781-10.605469-10.605469 10.605469-10.605469 10.605469 10.605469zm0 0"/></g></svg>